<?xml version="1.0" encoding="UTF-8"?>
<svg width="145px" height="149px" viewBox="0 0 145 149" version="1.1" xmlns="http://www.w3.org/2000/svg" xmlns:xlink="http://www.w3.org/1999/xlink">
    <title>blob-4</title>
    <g id="Page-1" stroke="none" stroke-width="1" fill="none" fill-rule="evenodd" opacity="0.5">
        <g id="blob-4" fill="#F2F4F8" fill-rule="nonzero">
            <path d="M104.771003,32.9283558 C110.971003,45.7283558 112.871003,56.8283558 121.071003,65.9283558 C129.371003,75.0283558 143.971003,82.2283558 144.271003,89.4283558 C144.471003,96.7283558 130.271003,104.128356 121.471003,112.328356 C112.671003,120.428356 109.171003,129.228356 102.771003,136.228356 C96.3710029,143.228356 86.9710029,148.328356 77.3710029,148.728356 C67.7710029,149.128356 57.8710029,144.828356 50.7710029,138.228356 C43.7710029,131.628356 39.4710029,122.728356 28.8710029,114.228356 C18.2710029,105.628356 1.37100286,97.5283558 0.0710028616,88.6283558 C-1.12899714,79.7283558 13.1710029,70.1283558 21.0710029,56.7283558 C28.8710029,43.4283558 30.1710029,26.4283558 38.4710029,14.8283558 C46.7710029,3.2283558 62.1710029,-2.8716442 75.1710029,1.3283558 C88.0710029,5.5283558 98.6710029,20.1283558 104.771003,32.9283558 Z" id="Path"></path>
        </g>
    </g>
</svg>