<?xml version="1.0" encoding="UTF-8"?>
<svg width="259px" height="244px" viewBox="0 0 259 244" version="1.1" xmlns="http://www.w3.org/2000/svg" xmlns:xlink="http://www.w3.org/1999/xlink">
    <title>blob-3</title>
    <g id="Page-1" stroke="none" stroke-width="1" fill="none" fill-rule="evenodd" opacity="0.5">
        <g id="blob-3" fill="#F2F4F8" fill-rule="nonzero">
            <path d="M170.05221,4.18255283 C192.299876,7.28734532 220.238806,10.5646263 238.519834,25.0536579 C256.800862,39.5426894 265.423989,65.4159601 253.524074,84.2172035 C241.62416,103.190935 209.201204,115.09264 194.886814,136.48121 C180.572424,157.869781 184.3666,188.745217 174.018848,210.478764 C163.498634,232.212312 138.836492,244.976459 114.8642,243.941528 C90.7194463,242.734109 67.2645422,227.9001 55.1921651,207.201484 C43.2922506,186.330379 42.774863,159.422177 31.7372611,139.241026 C20.8721217,118.887386 -0.340769476,104.91582 0.00415558317,91.2892308 C0.176618113,77.4901531 22.0793594,64.0360524 38.8082248,53.8592326 C55.5370902,43.6824128 67.2645422,36.9553624 78.9919942,27.6409849 C90.7194463,18.3266075 102.446898,6.42490296 116.761288,2.11269118 C130.903216,-2.1995206 147.632081,0.90527188 170.05221,4.18255283 Z" id="Path"></path>
        </g>
    </g>
</svg>