<?xml version="1.0" encoding="UTF-8"?>
<svg width="181px" height="149px" viewBox="0 0 181 149" version="1.1" xmlns="http://www.w3.org/2000/svg" xmlns:xlink="http://www.w3.org/1999/xlink">
    <title>blob-2</title>
    <g id="Page-1" stroke="none" stroke-width="1" fill="none" fill-rule="evenodd" opacity="0.504789807">
        <g id="blob-2" fill="#F2F4F8" fill-rule="nonzero">
            <path d="M131.02043,0.0285331986 C143.978067,0.843361488 153.200169,14.6954424 163.005948,29.0131395 C172.811727,43.4472406 183.084448,58.3469579 180.633003,71.8498267 C178.181558,85.3526955 162.889212,97.3423118 152.849962,111.310797 C142.810712,125.162878 137.907823,140.761019 127.401631,146.348413 C116.895439,152.052211 100.90268,147.512454 87.7115728,142.50708 C74.6372008,137.385302 64.4812153,131.5651 48.1382503,129.353423 C31.7952852,127.141746 9.26534052,128.422191 2.49468356,119.575484 C-4.39270886,110.845181 4.47918646,92.1041299 11.0163725,76.9716045 C17.4368231,61.8390791 21.5225643,50.5478871 26.1919829,37.9762507 C30.744666,25.4046142 35.8810265,11.5525333 45.803541,8.99164438 C55.60932,6.43075547 70.2012531,15.1610586 85.8438054,13.414998 C101.486358,11.6689373 118.062794,-0.669891049 131.02043,0.0285331986 Z" id="Path"></path>
        </g>
    </g>
</svg>