<?xml version="1.0" encoding="UTF-8"?>
<svg width="172px" height="137px" viewBox="0 0 172 137" version="1.1" xmlns="http://www.w3.org/2000/svg" xmlns:xlink="http://www.w3.org/1999/xlink">
    <title>blob 2</title>
    <g id="Page-1" stroke="none" stroke-width="1" fill="none" fill-rule="evenodd" opacity="0.3">
        <g id="blob" fill="#FFFFFF" fill-rule="nonzero">
            <path d="M142.213636,0.441050642 C158.474073,-2.20130123 174.052254,7.35181708 171.778067,20.4619475 C169.617589,33.6737069 149.604743,50.4424784 142.782182,63.7558667 C135.959621,76.9676261 142.441054,86.8256312 141.986217,95.8706049 C141.531379,104.915579 134.253981,113.24915 124.816105,113.960552 C115.378229,114.773584 103.666166,107.964446 88.5428219,113.147521 C73.5331875,118.330596 55.1122727,135.607512 41.5808599,136.928688 C28.1631565,138.148235 19.6349552,123.513671 12.8123941,109.285622 C5.87612369,95.0575735 0.75920289,81.1344117 0.076946784,66.9063632 C-0.605309322,52.5766857 3.26080861,38.0437504 11.2204632,25.4417645 C19.1801178,12.9414076 31.233309,2.47362901 45.4469778,3.99806278 C59.5469374,5.52249655 75.8073746,19.1407716 92.4089398,18.5309981 C109.010505,17.9212246 125.953198,3.08340252 142.213636,0.441050642 Z" id="Path"></path>
        </g>
    </g>
</svg>